<?xml version="1.0" encoding="UTF-8" standalone="no"?> <svg id="Layer_1" data-name="Layer 1" xmlns="http://www.w3.org/2000/svg" viewBox="0 0 128 128"><defs><style>.cls-1{fill:#2e79bd;}.cls-2{fill:#2d3e50;}</style></defs><title>b</title><path class="cls-1" d="M45.64945,99.04182a2.96679,2.96679,0,0,0-4.10971.79071A9.63086,9.63086,0,1,1,28.16806,86.46206a2.9617,2.9617,0,0,0-3.32051-4.9052,15.55312,15.55312,0,1,0,21.59587,21.59506,2.96153,2.96153,0,0,0-.794-4.11011Z"/><path class="cls-2" d="M117.95535,19.256l4.50131-4.50131a6.51339,6.51339,0,0,0-9.21132-9.21134L108.744,10.04467A40.3181,40.3181,0,0,0,56.73152,14.281L33.33174,37.68074,10.773,40.63153,2.47986,48.92464l76.59548,76.5955,8.29313-8.29313,2.95079-22.55875L113.719,71.26848a40.31814,40.31814,0,0,0,4.2363-52.01249ZM85.22529,21.36787a21.27072,21.27072,0,0,0-15.138,6.26889l-6.93666,6.93666a3.39393,3.39393,0,1,1-4.79975-4.79973L65.28758,22.837a28,28,0,0,1,19.93771-8.25555,3.3932,3.3932,0,0,1,0,6.7864Z"/></svg>